<svg version="1.2" xmlns="http://www.w3.org/2000/svg" viewBox="0 0 1000 1000" width="1000" height="1000">
	<title>S</title>
	<style>
		.s0 { fill: #000000 } 
		.s1 { fill: none } 
	</style>
	<g id="Folder 1">
		<path id="Shape S" class="s0" d="m650 200c0-40-40-60-100-60-80 0-120 30-120 80 0 40 20 60 80 80l120 30c100 30 160 80 160 160 0 120-100 180-240 180-140 0-250-50-260-170h90c10 50 50 90 170 90 90 0 150-40 150-100 0-50-30-70-90-90l-130-40c-80-20-140-60-140-150 0-110 100-160 230-160 130 0 210 50 220 150h-90z"/>
	</g>
	<path id="Layer 2" class="s1" d="m0 0h1000v1000h-1000z"/>
</svg>
